<svg width="91" height="91" viewBox="0 0 91 91" fill="none" xmlns="http://www.w3.org/2000/svg">
<path d="M17.204 85.951H75.634C76.169 85.951 76.661 85.652 76.909 85.178C77.157 84.701 77.118 84.127 76.811 83.69L67.463 70.338H71.666C72.203 70.338 72.694 70.038 72.941 69.563C73.189 69.088 73.152 68.514 72.843 68.076L61.542 51.936H65.764C66.3 51.936 66.792 51.637 67.038 51.162C67.286 50.686 67.249 50.112 66.94 49.675L61.197 41.471L61.195 41.469L47.597 22.042C47.06 21.272 45.779 21.272 45.242 22.042L25.896 49.674C25.587 50.112 25.55 50.686 25.798 51.161C26.044 51.637 26.536 51.935 27.072 51.935H31.293L19.993 68.075C19.684 68.513 19.647 69.088 19.895 69.562C20.141 70.038 20.633 70.337 21.17 70.337H25.373L16.026 83.689C15.718 84.127 15.681 84.701 15.928 85.177C16.177 85.652 16.669 85.951 17.204 85.951ZM72.872 83.075H69.601C52.076 80.81 45.465 73.744 43.249 70.338H63.954L72.872 83.075ZM46.419 25.372L57.22 40.798C46.693 40.366 41.706 37.111 39.931 35.5L46.419 25.372ZM38.003 37.391C40.536 39.603 46.907 43.728 59.196 43.728C59.22 43.728 59.247 43.728 59.27 43.728L63.004 49.059H58.783H34.053H29.832L38.003 37.391ZM58.036 51.936L59.249 53.668C55.864 55.518 45.627 60.257 28.282 61.248L34.802 51.935L58.036 51.936ZM26.198 64.225C46.055 63.487 57.364 58.059 60.911 56.043L68.906 67.461H64.702H28.136H23.931L26.198 64.225ZM28.884 70.338H39.931C41.101 72.783 45.117 79.049 56.687 83.075H19.966L28.884 70.338Z" fill="white"/>
<path d="M41.462 15.149L39.771 20.469C39.591 21.032 39.794 21.649 40.273 21.997C40.513 22.173 40.798 22.259 41.082 22.259C41.363 22.259 41.644 22.174 41.883 22.003L46.42 18.751L50.957 22.003C51.437 22.346 52.088 22.346 52.566 21.997C53.045 21.649 53.248 21.032 53.068 20.469L51.377 15.149L55.872 11.838C56.35 11.486 56.548 10.869 56.363 10.306C56.181 9.74197 55.657 9.35997 55.064 9.35597L49.483 9.32197L47.724 4.02297C47.536 3.45997 47.011 3.08197 46.419 3.08197C45.825 3.08197 45.3 3.46197 45.114 4.02297L43.354 9.32197L37.774 9.35597C37.181 9.35997 36.659 9.74197 36.475 10.306C36.291 10.869 36.489 11.486 36.967 11.838L41.462 15.149ZM44.358 12.066C44.946 12.062 45.468 11.684 45.654 11.125L46.419 8.82097L47.183 11.125C47.369 11.684 47.891 12.063 48.48 12.066L50.906 12.082L48.953 13.52C48.478 13.869 48.279 14.482 48.458 15.043L49.193 17.356L47.22 15.941C46.98 15.77 46.699 15.685 46.419 15.685C46.138 15.685 45.856 15.77 45.618 15.941L43.647 17.355L44.381 15.043C44.559 14.481 44.36 13.869 43.886 13.52L41.933 12.082L44.358 12.066Z" fill="white"/>
</svg>
